<?xml version="1.0" standalone="no"?>
<!DOCTYPE svg PUBLIC "-//W3C//DTD SVG 20010904//EN"
 "http://www.w3.org/TR/2001/REC-SVG-20010904/DTD/svg10.dtd">
<svg version="1.0" xmlns="http://www.w3.org/2000/svg"
 width="1461.000000pt" height="904.000000pt" viewBox="0 0 1461.000000 904.000000"
 preserveAspectRatio="xMidYMid meet">
<metadata>
Created by potrace 1.15, written by Peter Selinger 2001-2017
</metadata>
<g transform="translate(0.000000,904.000000) scale(0.100000,-0.100000)"
fill="#000000" stroke="none">
<path d="M0 4520 l0 -4520 7305 0 7305 0 0 4520 0 4520 -7305 0 -7305 0 0
-4520z m1212 3570 c61 -21 67 -26 62 -46 -3 -12 -16 -84 -28 -160 l-21 -137
-55 -19 -55 -19 -87 27 c-85 27 -88 29 -88 58 -1 17 -9 90 -19 161 -13 92 -15
132 -7 137 6 4 13 3 16 -3 4 -5 46 -22 95 -39 l89 -30 68 22 67 22 -57 19
c-31 11 -61 24 -67 30 -11 11 -12 11 87 -23z m674 -35 c20 -8 48 -27 63 -41
14 -14 42 -36 61 -48 20 -12 36 -31 38 -44 4 -27 -47 -82 -77 -82 -11 0 -32
-11 -47 -25 -22 -21 -37 -25 -86 -25 -54 0 -63 3 -93 33 -18 17 -50 41 -72 52
-23 12 -39 28 -41 42 -5 34 26 72 69 85 21 6 39 15 39 20 0 10 77 47 98 48 7
0 29 -7 48 -15z m6636 -277 l2 -163 3 163 3 162 2410 0 2410 0 2 -162 2 -163
3 163 3 162 515 0 515 0 0 -210 c0 -133 -4 -210 -10 -210 -7 0 -10 -1015 -10
-3025 0 -2010 3 -3025 10 -3025 6 0 10 -33 10 -80 0 -47 -4 -80 -10 -80 -6 0
-10 -62 -10 -165 l0 -165 -1600 0 -1600 0 0 285 0 285 -1452 -2 -1453 -3 1448
-2 1447 -3 0 -30 0 -30 -1640 0 -1640 0 0 35 0 35 -2360 0 -2360 0 0 2755 0
2755 280 0 280 0 0 115 0 115 -280 0 -280 0 0 155 0 155 2360 0 2361 0 -3 170
-3 170 323 0 322 0 2 -162z m-6792 -33 l0 -65 -65 0 -65 0 0 65 0 65 65 0 65
0 0 -65z m350 -830 l0 -245 -240 0 -240 0 0 245 0 245 240 0 240 0 0 -245z
m-920 138 c38 -22 70 -82 70 -132 l0 -41 -95 0 c-74 0 -95 -3 -95 -14 0 -36
69 -55 123 -32 l37 15 0 -39 c0 -34 -4 -39 -31 -49 -144 -50 -257 99 -157 207
28 29 40 28 32 -3 -6 -24 -4 -25 39 -25 53 0 62 8 41 38 -28 40 -99 28 -156
-26 -31 -29 -35 -21 -13 31 23 54 70 87 128 87 28 0 61 -7 77 -17z m-180 -318
l0 -65 -65 0 -65 0 0 65 0 65 65 0 65 0 0 -65z m670 -612 c1 -17 1 -17 14 0
11 14 26 17 70 16 31 -1 56 -6 56 -12 0 -6 5 -6 13 1 6 5 51 10 99 11 78 1 87
-1 93 -19 7 -21 28 -28 23 -7 -5 22 7 22 35 1 l27 -22 0 -201 c0 -127 -4 -201
-10 -201 -5 0 -10 -7 -10 -16 0 -14 -3 -14 -15 -4 -10 9 -15 9 -15 1 0 -19
-140 -14 -155 5 -10 15 -13 15 -27 1 -11 -12 -43 -16 -132 -19 l-116 -3 0 171
c0 119 4 174 12 182 8 8 8 12 1 12 -6 0 -11 25 -12 60 -1 58 0 60 24 60 17 0
25 -6 25 -17z m-439 -96 c37 -28 50 -87 26 -118 -7 -9 -38 -28 -70 -44 -38
-17 -65 -38 -77 -59 -31 -51 -40 -58 -76 -54 l-34 4 0 -47 0 -47 -65 -4 -65
-3 0 67 0 67 58 3 57 3 -43 19 c-41 18 -62 45 -62 82 0 19 18 18 77 -7 60 -24
94 -15 114 30 8 17 17 31 21 31 5 0 8 9 8 20 0 33 44 70 82 70 18 0 40 -6 49
-13z m-104 -908 c-10 -6 -47 -9 -83 -7 -54 2 -64 0 -64 -13 0 -29 -40 -69 -68
-69 l-27 0 1 -103 c2 -176 1 -170 30 -114 14 26 28 46 32 43 4 -2 23 -36 41
-75 l35 -70 130 -4 131 -3 -142 -2 c-136 -2 -143 -3 -143 -22 0 -19 7 -20 141
-20 133 0 143 1 165 23 18 17 24 33 25 72 1 28 5 77 9 110 6 48 7 32 9 -82 l1
-143 -240 0 -240 0 0 245 0 245 138 0 c101 -1 132 -3 119 -11z m50 -32 c10
-12 31 -32 47 -45 16 -12 25 -22 20 -22 -4 0 13 -21 39 -48 l46 -47 -91 -93
-92 -93 -93 93 -93 93 92 93 c51 50 95 92 99 92 4 0 16 -10 26 -23z m755 -25
c-2 -13 124 -311 139 -326 25 -27 8 -36 -66 -36 l-74 0 5 28 c4 19 -12 67 -56
172 -34 80 -66 149 -71 155 -20 20 -6 26 59 23 48 -2 66 -7 64 -16z m-212
-285 c0 -5 7 -7 15 -3 12 4 15 -6 15 -64 l0 -70 -65 0 -65 0 0 65 c0 63 1 65
25 65 18 0 29 8 37 26 11 24 13 25 25 8 7 -10 13 -22 13 -27z m-601 -685 c6
-10 6 -24 1 -32 -12 -19 -2 -32 19 -25 13 4 23 -7 41 -52 14 -32 23 -62 22
-67 -2 -5 6 -15 18 -23 11 -8 20 -23 20 -33 0 -10 5 -22 10 -25 6 -3 10 -14
10 -24 0 -9 10 -28 23 -41 25 -27 59 -108 51 -122 -13 -20 -94 -1 -94 23 0 6
4 8 9 5 5 -3 11 8 15 25 10 50 6 67 -7 35 l-13 -30 -21 36 c-11 20 -24 46 -28
59 -4 13 -16 44 -27 69 -11 25 -29 64 -39 88 -11 24 -24 42 -30 40 -12 -4 -49
-102 -49 -130 0 -20 43 -25 70 -8 17 10 28 -8 29 -47 1 -21 -3 -23 -58 -23
-90 0 -91 -1 -91 -81 l0 -69 -65 0 -65 0 0 60 0 60 40 0 c32 0 40 4 40 18 0
11 13 45 28 78 16 32 40 85 55 117 15 31 33 57 41 57 12 0 13 7 6 31 -5 18 -7
36 -4 40 9 15 33 10 43 -9z m851 -1056 c56 -37 94 -118 88 -184 -6 -58 -36
-123 -60 -130 -10 -2 -16 -7 -13 -11 8 -13 -54 -42 -102 -47 -30 -4 -64 0 -90
9 l-43 15 0 -34 0 -34 -65 0 -65 0 0 65 0 65 35 0 34 0 -14 41 c-26 73 -15
143 31 205 57 77 180 96 264 40z m-970 -351 l0 -65 -65 0 -65 0 0 65 0 65 65
0 65 0 0 -65z m219 -648 c66 -44 95 -97 99 -181 4 -90 -22 -146 -90 -192 -66
-45 -133 -51 -210 -19 -14 5 -18 2 -18 -14 0 -19 -6 -21 -65 -21 l-65 0 0 65
c0 62 1 65 25 65 22 0 24 2 15 26 -14 37 -12 129 3 167 53 124 200 174 306
104z m531 -362 l0 -65 -65 0 -65 0 0 65 0 65 65 0 65 0 0 -65z m2910 -1070 l0
-195 -1720 0 -1720 0 0 195 0 195 1720 0 1720 0 0 -195z m2244 99 c9 -8 16
-25 17 -37 1 -20 2 -20 9 3 7 22 8 23 9 4 1 -17 6 -20 26 -16 l26 4 -3 -88 -3
-89 -110 0 -110 0 -3 89 -3 88 36 -4 c28 -3 35 -1 35 13 0 21 26 49 45 49 7 0
21 -7 29 -16z m-453 -36 l59 -33 0 -67 0 -68 -120 0 -120 0 0 68 0 67 58 32
c31 18 59 33 61 33 2 0 30 -15 62 -32z m1460 22 c24 -13 49 -61 49 -95 0 -103
-139 -143 -186 -54 -25 50 -9 123 33 148 23 13 79 14 104 1z m-2026 -10 c3 -5
31 -10 61 -10 l54 0 0 -80 c0 -69 -2 -80 -17 -81 -88 -5 -152 -4 -170 2 -21 8
-23 15 -23 78 0 93 4 101 50 101 22 0 42 -4 45 -10z m2555 -85 l0 -95 -40 0
c-22 0 -40 3 -40 7 0 4 17 24 37 45 l37 38 -42 0 -42 0 0 -45 0 -45 -45 0 -45
0 0 95 0 95 90 0 90 0 0 -95z m5710 40 c0 -36 -4 -45 -17 -45 -24 0 -63 -40
-63 -63 0 -19 -1 -19 -18 -4 -10 10 -28 17 -40 17 -21 0 -22 5 -22 70 l0 70
80 0 80 0 0 -45z"/>
<path d="M7970 7800 c0 -38 4 -50 15 -50 8 0 15 -9 15 -20 0 -18 7 -20 55 -20
l55 0 0 50 c0 38 -4 50 -15 50 -8 0 -15 9 -15 20 0 18 -7 20 -55 20 l-55 0 0
-50z"/>
<path d="M14215 7225 c-14 -13 -25 -35 -25 -48 0 -30 39 -67 71 -67 31 0 69
38 69 69 0 28 -42 71 -70 71 -11 0 -32 -11 -45 -25z"/>
<path d="M3940 6733 c3 -358 1 -485 -10 -478 -6 4 -10 -7 -9 -27 1 -31 1 -32
9 -8 8 26 16 -430 10 -650 -2 -101 -6 -127 -19 -137 -13 -10 -17 -7 -22 15 -5
20 -7 14 -8 -23 0 -27 3 -45 7 -38 5 8 12 8 25 -2 16 -12 17 -37 16 -331 0
-176 0 -323 1 -329 3 -29 4 -92 2 -197 -2 -95 -5 -118 -16 -118 -8 0 -17 12
-19 28 l-4 27 -2 -28 c-1 -21 4 -30 18 -34 18 -4 20 -16 23 -112 7 -243 -3
-1312 -12 -1306 -6 4 -10 -10 -9 -32 1 -38 1 -38 9 -8 8 30 10 -29 13 -361 2
-135 1 -141 -18 -140 -16 1 -21 10 -26 46 l-7 45 2 -45 c1 -36 5 -47 24 -55
25 -11 22 34 23 -452 l0 -243 3609 0 3610 0 0 2595 0 2595 -3611 0 -3611 0 2
-197z m7208 55 l-3 -133 -3595 0 -3595 0 -3 133 -3 132 3601 0 3601 0 -3 -132z
m-2084 -2527 c21 -16 42 -32 49 -34 9 -3 9 -8 0 -18 -7 -7 -13 -17 -13 -22 0
-8 94 -1 134 10 12 3 16 1 12 -6 -4 -6 -18 -11 -32 -11 -13 0 -24 -5 -24 -11
0 -6 -7 -9 -15 -5 -20 7 -19 -21 1 -32 13 -7 10 -11 -17 -17 -23 -5 -28 -9
-16 -12 19 -5 24 -23 6 -23 -8 0 -8 -4 1 -15 10 -11 9 -18 -4 -30 -9 -9 -21
-13 -27 -9 -8 4 -9 3 -5 -4 4 -7 2 -20 -4 -29 -9 -14 -10 -14 -7 -2 5 17 -37
78 -47 68 -3 -3 2 -14 12 -25 11 -11 22 -33 26 -49 7 -27 9 -28 20 -12 18 24
29 22 14 -3 -11 -17 -10 -22 2 -30 8 -5 10 -10 5 -10 -6 0 -16 5 -23 12 -7 7
-12 8 -12 2 0 -17 22 -33 38 -27 10 5 13 2 8 -6 -5 -7 -14 -10 -22 -7 -10 4
-14 -4 -15 -27 0 -25 -2 -28 -8 -13 -7 18 -8 18 -14 2 -4 -10 -4 -23 0 -29 19
-31 -4 -76 -39 -77 -8 -1 -6 -6 5 -14 11 -9 14 -17 8 -20 -6 -4 -7 -14 -4 -22
3 -9 0 -20 -7 -24 -11 -7 -10 -11 3 -24 8 -9 20 -16 26 -16 5 0 9 -13 9 -29
-1 -15 2 -33 6 -40 4 -6 1 -11 -8 -11 -9 0 -16 5 -16 11 0 5 -5 7 -11 3 -7 -4
-1 -16 15 -33 14 -15 26 -30 26 -34 0 -18 -38 -47 -53 -41 -10 3 -17 1 -17 -6
0 -6 4 -9 9 -6 9 6 26 -22 23 -36 -1 -5 2 -8 7 -8 5 0 16 -12 26 -27 16 -27
-34 22 -194 190 -72 76 -73 78 -41 72 18 -3 45 0 61 7 23 10 29 19 29 43 0 16
-5 37 -10 45 -6 10 -4 20 6 32 22 23 14 52 -15 56 -15 3 -27 14 -34 33 -7 16
-17 27 -23 25 -6 -2 -25 9 -42 25 -21 19 -37 27 -49 22 -10 -3 -15 -2 -10 2 4
5 -3 19 -15 32 -30 32 -17 39 15 9 31 -29 58 -37 64 -18 3 7 -10 19 -31 27
-23 10 -36 22 -37 35 -2 33 -4 38 -11 46 -14 14 -8 43 13 62 22 21 59 19 59
-3 0 -15 22 -25 52 -25 14 0 18 5 14 16 -5 12 -1 14 17 8 12 -4 25 -11 28 -17
10 -14 29 1 29 24 0 10 5 19 10 19 14 0 13 43 -2 58 -9 9 -9 12 0 12 7 0 12 7
12 16 0 9 5 12 12 8 6 -4 8 -3 5 4 -8 12 1 42 13 42 4 0 24 -13 44 -29z m-232
-657 c58 -63 59 -64 92 -103 l28 -35 -63 -31 c-53 -27 -67 -30 -90 -22 -29 11
-28 7 -44 145 -6 44 -5 51 8 46 12 -4 14 0 10 16 -4 16 -8 18 -14 8 -5 -7 -9
-8 -9 -2 0 6 3 14 7 17 14 15 34 5 75 -39z m-153 -22 c14 0 29 -8 33 -17 5 -8
13 -13 18 -10 5 3 11 -16 15 -42 3 -27 8 -55 9 -64 3 -14 -5 -13 -53 8 -31 14
-61 32 -67 39 -6 8 -16 14 -21 14 -5 0 -9 10 -9 23 1 15 -5 23 -20 25 -12 2
-24 12 -27 22 -4 16 -1 17 20 9 13 -5 34 -9 45 -9 18 0 19 2 7 18 -13 16 -12
16 6 1 11 -8 31 -16 44 -17z m301 -287 c51 -26 111 -75 91 -75 -24 0 -26 2
-23 18 3 12 1 14 -7 6 -12 -11 -5 -44 10 -44 5 0 9 -4 9 -10 0 -5 -7 -7 -15
-4 -11 4 -13 2 -9 -9 3 -10 -1 -17 -13 -20 -10 -3 4 -5 31 -6 67 -1 55 -7 -32
-15 -52 -4 -71 -3 -67 5 4 5 13 8 21 5 16 -6 18 3 4 24 -8 13 -11 13 -19 1
-15 -23 -51 21 -38 45 5 11 6 16 2 12 -4 -4 -14 0 -21 10 -12 16 -12 16 -9 -3
2 -11 4 -21 5 -22 2 -2 3 -6 4 -10 1 -5 8 -19 15 -33 12 -22 10 -21 -20 8
l-33 32 29 55 c17 30 31 55 33 55 1 0 25 -11 52 -25z m-166 -292 c27 -89 28
-101 7 -63 -10 19 -17 39 -14 45 2 5 -5 -1 -16 -14 -12 -13 -21 -28 -21 -35 0
-6 5 -4 10 4 7 12 10 8 10 -14 0 -24 -2 -27 -15 -16 -12 10 -15 10 -15 0 0 -7
-6 -10 -13 -7 -21 8 -36 -27 -31 -72 4 -35 3 -40 -12 -34 -12 4 -15 2 -12 -8
3 -8 12 -13 20 -11 8 1 20 -10 27 -25 10 -22 14 -24 22 -12 14 23 10 5 -7 -29
-18 -37 -15 -36 -49 -20 -18 8 -22 14 -13 20 19 12 28 10 28 -7 0 -8 5 -15 11
-15 5 0 7 5 3 11 -3 6 -1 15 6 19 7 5 0 9 -19 12 -18 3 -31 0 -31 -6 0 -6 -6
-4 -13 4 -18 21 -37 68 -29 72 4 2 36 60 72 130 36 70 68 128 71 128 3 0 13
-26 23 -57z"/>
<path d="M3990 6800 l0 -80 80 0 80 0 0 80 0 80 -80 0 -80 0 0 -80z"/>
<path d="M3400 5930 l0 -50 80 0 80 0 0 50 0 50 -80 0 -80 0 0 -50z"/>
<path d="M3492 4188 l-2 -78 70 0 70 0 -2 78 -1 77 -7 -65 -7 -65 -1 63 -2 62
-50 0 -50 0 -2 -62 -1 -63 -7 65 -7 65 -1 -77z"/>
<path d="M1700 6047 c0 -8 -7 -17 -15 -21 -8 -3 -15 -15 -15 -26 0 -11 -4 -20
-8 -20 -4 0 -8 -25 -9 -55 -1 -30 -7 -71 -13 -91 -7 -19 -9 -38 -6 -41 8 -8
36 17 36 33 0 7 5 24 11 37 11 24 12 24 30 6 13 -13 19 -33 19 -64 0 -39 3
-45 21 -45 16 0 19 4 14 18 -4 9 -7 32 -6 50 1 17 -4 42 -11 55 -17 29 -17 86
0 80 15 -6 44 16 36 28 -3 5 5 13 18 18 21 9 20 10 -12 12 -19 1 -40 1 -46 0
-7 -1 -11 6 -10 16 0 9 -7 19 -16 21 -11 2 -18 -3 -18 -11z"/>
<path d="M1720 2890 l-54 -28 60 -30 c59 -30 61 -30 57 -9 -4 21 -2 22 60 19
58 -3 64 -6 60 -22 -4 -17 2 -15 52 11 31 17 55 32 53 34 -2 1 -27 15 -56 29
-47 24 -53 25 -50 9 3 -15 -6 -18 -59 -21 -54 -3 -62 -1 -65 17 -3 18 -6 18
-58 -9z"/>
<path d="M1344 681 c-38 -23 -57 -73 -46 -116 10 -35 63 -75 102 -75 39 0 92
40 102 75 17 64 -37 135 -102 135 -14 0 -39 -9 -56 -19z m91 -17 c23 -9 47
-61 39 -87 -12 -39 -35 -57 -74 -57 -60 0 -93 55 -66 109 20 38 57 51 101 35z"/>
</g>
</svg>
